<svg xmlns="http://www.w3.org/2000/svg" width="588" height="1474" viewBox="0 0 588 1474">
  <defs>
    <marker id="ar--" markerWidth="10" markerHeight="10" refX="8" refY="3" orient="auto" markerUnits="strokeWidth">
      <path d="M0,0 L8,3 L0,6 Z" fill="#64748B"/>
    </marker>
  </defs>
  <rect width="588" height="1474" fill="#F8FAFC"/>
  <text x="44" y="46" font-family="Segoe UI, Arial" font-size="26" font-weight="800" fill="#0F766E">Admin Module — Request Flow</text>
  <text x="44" y="72" font-family="Segoe UI, Arial" font-size="13" fill="#64748B">Governance: dashboards, staff management, and announcements.</text>
  <rect x="44" y="92" width="18" height="18" rx="4" fill="#3B82F6" stroke="rgba(0,0,0,0.15)"/><text x="68" y="101" dominant-baseline="central" font-family="Segoe UI, Arial" font-size="12" fill="#334155">App / UI</text><rect x="167.6" y="92" width="18" height="18" rx="4" fill="#0EA5A4" stroke="rgba(0,0,0,0.15)"/><text x="191.6" y="101" dominant-baseline="central" font-family="Segoe UI, Arial" font-size="12" fill="#334155">REST API</text><rect x="291.2" y="92" width="18" height="18" rx="4" fill="#F59E0B" stroke="rgba(0,0,0,0.15)"/><text x="315.2" y="101" dominant-baseline="central" font-family="Segoe UI, Arial" font-size="12" fill="#334155">Auth / Validation</text><rect x="44" y="118" width="18" height="18" rx="4" fill="#6366F1" stroke="rgba(0,0,0,0.15)"/><text x="68" y="127" dominant-baseline="central" font-family="Segoe UI, Arial" font-size="12" fill="#334155">Controller / Logic</text><rect x="239.6" y="118" width="18" height="18" rx="4" fill="#0D9488" stroke="rgba(0,0,0,0.15)"/><text x="263.6" y="127" dominant-baseline="central" font-family="Segoe UI, Arial" font-size="12" fill="#334155">AI Triage</text><rect x="44" y="144" width="18" height="18" rx="4" fill="#10B981" stroke="rgba(0,0,0,0.15)"/><text x="68" y="153" dominant-baseline="central" font-family="Segoe UI, Arial" font-size="12" fill="#334155">MongoDB (store/fetch)</text><rect x="261.20000000000005" y="144" width="18" height="18" rx="4" fill="#8B5CF6" stroke="rgba(0,0,0,0.15)"/><text x="285.20000000000005" y="153" dominant-baseline="central" font-family="Segoe UI, Arial" font-size="12" fill="#334155">Socket.IO (live)</text><rect x="44" y="170" width="18" height="18" rx="4" fill="#EC4899" stroke="rgba(0,0,0,0.15)"/><text x="68" y="179" dominant-baseline="central" font-family="Segoe UI, Arial" font-size="12" fill="#334155">Notification</text><rect x="196.4" y="170" width="18" height="18" rx="4" fill="#FBBF24" stroke="rgba(0,0,0,0.15)"/><text x="220.4" y="179" dominant-baseline="central" font-family="Segoe UI, Arial" font-size="12" fill="#334155">Decision (Yes/No)</text>
  <path d="M169,237 V312" fill="none" stroke="#64748B" stroke-width="2" marker-end="url(#ar--)"/>
<path d="M169,372 V435" fill="none" stroke="#64748B" stroke-width="2" marker-end="url(#ar--)"/>
<path d="M169,505 V568" fill="none" stroke="#64748B" stroke-width="2" marker-end="url(#ar--)"/>
<path d="M169,628 V678" fill="none" stroke="#64748B" stroke-width="2" marker-end="url(#ar--)"/>
<path d="M253,726 H319" fill="none" stroke="#64748B" stroke-width="2" marker-end="url(#ar--)"/><rect x="270" y="705" width="32" height="20" rx="5" fill="#FFFFFF" stroke="#374151"/><text x="286" y="716" text-anchor="middle" dominant-baseline="central" font-family="Segoe UI, Arial" font-size="11" font-weight="700" fill="#374151">Manage</text>
<path d="M419,756 V819" fill="none" stroke="#64748B" stroke-width="2" marker-end="url(#ar--)"/>
<path d="M169,774 V824" fill="none" stroke="#64748B" stroke-width="2" marker-end="url(#ar--)"/><rect x="153" y="788" width="32" height="20" rx="5" fill="#FFFFFF" stroke="#374151"/><text x="169" y="799" text-anchor="middle" dominant-baseline="central" font-family="Segoe UI, Arial" font-size="11" font-weight="700" fill="#374151">Announce</text>
<path d="M169,884 V952" fill="none" stroke="#64748B" stroke-width="2" marker-end="url(#ar--)"/>
<path d="M169,1012 V1075" fill="none" stroke="#64748B" stroke-width="2" marker-end="url(#ar--)"/>
<path d="M263,1110 H319" fill="none" stroke="#64748B" stroke-width="2" marker-end="url(#ar--)"/><rect x="275" y="1089" width="32" height="20" rx="5" fill="#FFFFFF" stroke="#374151"/><text x="291" y="1100" text-anchor="middle" dominant-baseline="central" font-family="Segoe UI, Arial" font-size="11" font-weight="700" fill="#374151">push</text>
<path d="M169,1145 V1208" fill="none" stroke="#64748B" stroke-width="2" marker-end="url(#ar--)"/>
<path d="M169,1268 V1343" fill="none" stroke="#64748B" stroke-width="2" marker-end="url(#ar--)"/>
  <rect x="81" y="191" width="176" height="46" rx="23" fill="#334155"/><text x="169" y="214" text-anchor="middle" dominant-baseline="central" font-family="Segoe UI, Arial, sans-serif" font-size="13" font-weight="600" fill="#FFFFFF">Admin logs in</text>
<rect x="69" y="312" width="200" height="60" rx="10" fill="#0EA5A4" stroke="rgba(0,0,0,0.15)"/><text x="169" y="334" text-anchor="middle" dominant-baseline="central" font-family="Segoe UI, Arial, sans-serif" font-size="13" font-weight="600" fill="#FFFFFF">GET /api/admin/</text><text x="169" y="350" text-anchor="middle" dominant-baseline="central" font-family="Segoe UI, Arial, sans-serif" font-size="13" font-weight="600" fill="#FFFFFF">dashboard, /analytics</text>
<path d="M75,445 a94,10 0 0 1 188,0 v50 a94,10 0 0 1 -188,0 Z" fill="#10B981" stroke="rgba(0,0,0,0.15)"/><ellipse cx="169" cy="445" rx="94" ry="10" fill="rgba(255,255,255,0.18)"/><text x="169" y="466" text-anchor="middle" dominant-baseline="central" font-family="Segoe UI, Arial, sans-serif" font-size="13" font-weight="600" fill="#FFFFFF">MongoDB: aggregate</text><text x="169" y="482" text-anchor="middle" dominant-baseline="central" font-family="Segoe UI, Arial, sans-serif" font-size="13" font-weight="600" fill="#FFFFFF">stats (FETCH)</text>
<rect x="69" y="568" width="200" height="60" rx="10" fill="#3B82F6" stroke="rgba(0,0,0,0.15)"/><text x="169" y="598" text-anchor="middle" dominant-baseline="central" font-family="Segoe UI, Arial, sans-serif" font-size="13" font-weight="600" fill="#FFFFFF">Admin dashboard</text>
<polygon points="169,678 253,726 169,774 85,726" fill="#FBBF24" stroke="rgba(0,0,0,0.15)"/><text x="169" y="718" text-anchor="middle" dominant-baseline="central" font-family="Segoe UI, Arial, sans-serif" font-size="13" font-weight="600" fill="#1F2937">Action</text><text x="169" y="734" text-anchor="middle" dominant-baseline="central" font-family="Segoe UI, Arial, sans-serif" font-size="13" font-weight="600" fill="#1F2937">type?</text>
<rect x="319" y="696" width="200" height="60" rx="10" fill="#6366F1" stroke="rgba(0,0,0,0.15)"/><text x="419" y="710" text-anchor="middle" dominant-baseline="central" font-family="Segoe UI, Arial, sans-serif" font-size="13" font-weight="600" fill="#FFFFFF">Manage doctors /</text><text x="419" y="726" text-anchor="middle" dominant-baseline="central" font-family="Segoe UI, Arial, sans-serif" font-size="13" font-weight="600" fill="#FFFFFF">pharmacists (CRUD)</text><text x="419" y="742" text-anchor="middle" dominant-baseline="central" font-family="Segoe UI, Arial, sans-serif" font-size="13" font-weight="600" fill="#FFFFFF">+ classify chronic</text>
<path d="M325,829 a94,10 0 0 1 188,0 v50 a94,10 0 0 1 -188,0 Z" fill="#10B981" stroke="rgba(0,0,0,0.15)"/><ellipse cx="419" cy="829" rx="94" ry="10" fill="rgba(255,255,255,0.18)"/><text x="419" y="850" text-anchor="middle" dominant-baseline="central" font-family="Segoe UI, Arial, sans-serif" font-size="13" font-weight="600" fill="#FFFFFF">MongoDB: write</text><text x="419" y="866" text-anchor="middle" dominant-baseline="central" font-family="Segoe UI, Arial, sans-serif" font-size="13" font-weight="600" fill="#FFFFFF">records (WRITE)</text>
<rect x="69" y="824" width="200" height="60" rx="10" fill="#3B82F6" stroke="rgba(0,0,0,0.15)"/><text x="169" y="854" text-anchor="middle" dominant-baseline="central" font-family="Segoe UI, Arial, sans-serif" font-size="13" font-weight="600" fill="#FFFFFF">Post announcement</text>
<rect x="69" y="952" width="200" height="60" rx="10" fill="#0EA5A4" stroke="rgba(0,0,0,0.15)"/><text x="169" y="974" text-anchor="middle" dominant-baseline="central" font-family="Segoe UI, Arial, sans-serif" font-size="13" font-weight="600" fill="#FFFFFF">POST /admin/</text><text x="169" y="990" text-anchor="middle" dominant-baseline="central" font-family="Segoe UI, Arial, sans-serif" font-size="13" font-weight="600" fill="#FFFFFF">announcements</text>
<path d="M75,1085 a94,10 0 0 1 188,0 v50 a94,10 0 0 1 -188,0 Z" fill="#10B981" stroke="rgba(0,0,0,0.15)"/><ellipse cx="169" cy="1085" rx="94" ry="10" fill="rgba(255,255,255,0.18)"/><text x="169" y="1106" text-anchor="middle" dominant-baseline="central" font-family="Segoe UI, Arial, sans-serif" font-size="13" font-weight="600" fill="#FFFFFF">MongoDB: save +</text><text x="169" y="1122" text-anchor="middle" dominant-baseline="central" font-family="Segoe UI, Arial, sans-serif" font-size="13" font-weight="600" fill="#FFFFFF">fan-out (WRITE)</text>
<rect x="319" y="1080" width="200" height="60" rx="10" fill="#EC4899" stroke="rgba(0,0,0,0.15)"/><text x="419" y="1102" text-anchor="middle" dominant-baseline="central" font-family="Segoe UI, Arial, sans-serif" font-size="13" font-weight="600" fill="#FFFFFF">Notify audience</text><text x="419" y="1118" text-anchor="middle" dominant-baseline="central" font-family="Segoe UI, Arial, sans-serif" font-size="13" font-weight="600" fill="#FFFFFF">(doctors / pharmacy / lab)</text>
<rect x="69" y="1208" width="200" height="60" rx="10" fill="#8B5CF6" stroke="rgba(0,0,0,0.15)"/><text x="169" y="1230" text-anchor="middle" dominant-baseline="central" font-family="Segoe UI, Arial, sans-serif" font-size="13" font-weight="600" fill="#FFFFFF">Socket.IO</text><text x="169" y="1246" text-anchor="middle" dominant-baseline="central" font-family="Segoe UI, Arial, sans-serif" font-size="13" font-weight="600" fill="#FFFFFF">admin:update (LIVE)</text>
<rect x="81" y="1343" width="176" height="46" rx="23" fill="#334155"/><text x="169" y="1366" text-anchor="middle" dominant-baseline="central" font-family="Segoe UI, Arial, sans-serif" font-size="13" font-weight="600" fill="#FFFFFF">System updated</text>
</svg>