<svg xmlns="http://www.w3.org/2000/svg" width="838" height="962" viewBox="0 0 838 962">
  <defs>
    <marker id="ar--" markerWidth="10" markerHeight="10" refX="8" refY="3" orient="auto" markerUnits="strokeWidth">
      <path d="M0,0 L8,3 L0,6 Z" fill="#64748B"/>
    </marker>
  </defs>
  <rect width="838" height="962" fill="#F8FAFC"/>
  <text x="44" y="46" font-family="Segoe UI, Arial" font-size="26" font-weight="800" fill="#0F766E">SehatLine — Combined System Flow (All Modules)</text>
  <text x="44" y="72" font-family="Segoe UI, Arial" font-size="13" fill="#64748B">End-to-end patient journey across all roles, with the shared data and real-time layers.</text>
  <rect x="44" y="92" width="18" height="18" rx="4" fill="#3B82F6" stroke="rgba(0,0,0,0.15)"/><text x="68" y="101" dominant-baseline="central" font-family="Segoe UI, Arial" font-size="12" fill="#334155">App / UI</text><rect x="167.6" y="92" width="18" height="18" rx="4" fill="#0EA5A4" stroke="rgba(0,0,0,0.15)"/><text x="191.6" y="101" dominant-baseline="central" font-family="Segoe UI, Arial" font-size="12" fill="#334155">REST API</text><rect x="291.2" y="92" width="18" height="18" rx="4" fill="#F59E0B" stroke="rgba(0,0,0,0.15)"/><text x="315.2" y="101" dominant-baseline="central" font-family="Segoe UI, Arial" font-size="12" fill="#334155">Auth / Validation</text><rect x="479.6" y="92" width="18" height="18" rx="4" fill="#6366F1" stroke="rgba(0,0,0,0.15)"/><text x="503.6" y="101" dominant-baseline="central" font-family="Segoe UI, Arial" font-size="12" fill="#334155">Controller / Logic</text><rect x="44" y="118" width="18" height="18" rx="4" fill="#0D9488" stroke="rgba(0,0,0,0.15)"/><text x="68" y="127" dominant-baseline="central" font-family="Segoe UI, Arial" font-size="12" fill="#334155">AI Triage</text><rect x="174.8" y="118" width="18" height="18" rx="4" fill="#10B981" stroke="rgba(0,0,0,0.15)"/><text x="198.8" y="127" dominant-baseline="central" font-family="Segoe UI, Arial" font-size="12" fill="#334155">MongoDB (store/fetch)</text><rect x="392" y="118" width="18" height="18" rx="4" fill="#8B5CF6" stroke="rgba(0,0,0,0.15)"/><text x="416" y="127" dominant-baseline="central" font-family="Segoe UI, Arial" font-size="12" fill="#334155">Socket.IO (live)</text><rect x="573.2" y="118" width="18" height="18" rx="4" fill="#EC4899" stroke="rgba(0,0,0,0.15)"/><text x="597.2" y="127" dominant-baseline="central" font-family="Segoe UI, Arial" font-size="12" fill="#334155">Notification</text><rect x="44" y="144" width="18" height="18" rx="4" fill="#FBBF24" stroke="rgba(0,0,0,0.15)"/><text x="68" y="153" dominant-baseline="central" font-family="Segoe UI, Arial" font-size="12" fill="#334155">Decision (Yes/No)</text>
  <path d="M169,237 V312" fill="none" stroke="#64748B" stroke-width="2" marker-end="url(#ar--)"/>
<path d="M169,372 V440" fill="none" stroke="#64748B" stroke-width="2" marker-end="url(#ar--)"/>
<path d="M169,500 V550" fill="none" stroke="#64748B" stroke-width="2" marker-end="url(#ar--)"/>
<path d="M169,646 V696" fill="none" stroke="#64748B" stroke-width="2" marker-end="url(#ar--)"/><rect x="153" y="660" width="32" height="20" rx="5" fill="#FFFFFF" stroke="#059669"/><text x="169" y="671" text-anchor="middle" dominant-baseline="central" font-family="Segoe UI, Arial" font-size="11" font-weight="700" fill="#059669">Yes</text>
<path d="M253,598 H581" fill="none" stroke="#64748B" stroke-width="2" marker-end="url(#ar--)"/><rect x="401" y="577" width="32" height="20" rx="5" fill="#FFFFFF" stroke="#DC2626"/><text x="417" y="588" text-anchor="middle" dominant-baseline="central" font-family="Segoe UI, Arial" font-size="11" font-weight="700" fill="#DC2626">No</text>
<path d="M169,756 V831" fill="none" stroke="#64748B" stroke-width="2" marker-end="url(#ar--)"/>
<path d="M269,342 H325" fill="none" stroke="#64748B" stroke-width="2" marker-end="url(#ar--)"/><rect x="281" y="321" width="32" height="20" rx="5" fill="#FFFFFF" stroke="#374151"/><text x="297" y="332" text-anchor="middle" dominant-baseline="central" font-family="Segoe UI, Arial" font-size="11" font-weight="700" fill="#374151">store/fetch</text>
<path d="M269,470 H319" fill="none" stroke="#64748B" stroke-width="2" marker-end="url(#ar--)"/><rect x="278" y="449" width="32" height="20" rx="5" fill="#FFFFFF" stroke="#374151"/><text x="294" y="460" text-anchor="middle" dominant-baseline="central" font-family="Segoe UI, Arial" font-size="11" font-weight="700" fill="#374151">live</text>
<path d="M269,726 H319" fill="none" stroke="#64748B" stroke-width="2" marker-end="url(#ar--)"/><rect x="278" y="705" width="32" height="20" rx="5" fill="#FFFFFF" stroke="#374151"/><text x="294" y="716" text-anchor="middle" dominant-baseline="central" font-family="Segoe UI, Arial" font-size="11" font-weight="700" fill="#374151">notify</text>
<path d="M569,342 H513" fill="none" stroke="#64748B" stroke-width="2" marker-end="url(#ar--)"/><rect x="525" y="321" width="32" height="20" rx="5" fill="#FFFFFF" stroke="#374151"/><text x="541" y="332" text-anchor="middle" dominant-baseline="central" font-family="Segoe UI, Arial" font-size="11" font-weight="700" fill="#374151">manage</text>
  <rect x="81" y="191" width="176" height="46" rx="23" fill="#334155"/><text x="169" y="206" text-anchor="middle" dominant-baseline="central" font-family="Segoe UI, Arial, sans-serif" font-size="13" font-weight="600" fill="#FFFFFF">PATIENT</text><text x="169" y="222" text-anchor="middle" dominant-baseline="central" font-family="Segoe UI, Arial, sans-serif" font-size="13" font-weight="600" fill="#FFFFFF">Generate token</text>
<rect x="69" y="312" width="200" height="60" rx="10" fill="#6366F1" stroke="rgba(0,0,0,0.15)"/><text x="169" y="334" text-anchor="middle" dominant-baseline="central" font-family="Segoe UI, Arial, sans-serif" font-size="13" font-weight="600" fill="#FFFFFF">DOCTOR</text><text x="169" y="350" text-anchor="middle" dominant-baseline="central" font-family="Segoe UI, Arial, sans-serif" font-size="13" font-weight="600" fill="#FFFFFF">Consult + prescribe</text>
<rect x="69" y="440" width="200" height="60" rx="10" fill="#6366F1" stroke="rgba(0,0,0,0.15)"/><text x="169" y="462" text-anchor="middle" dominant-baseline="central" font-family="Segoe UI, Arial, sans-serif" font-size="13" font-weight="600" fill="#FFFFFF">PHARMACY</text><text x="169" y="478" text-anchor="middle" dominant-baseline="central" font-family="Segoe UI, Arial, sans-serif" font-size="13" font-weight="600" fill="#FFFFFF">Dispense medicines</text>
<polygon points="169,550 253,598 169,646 85,598" fill="#FBBF24" stroke="rgba(0,0,0,0.15)"/><text x="169" y="590" text-anchor="middle" dominant-baseline="central" font-family="Segoe UI, Arial, sans-serif" font-size="13" font-weight="600" fill="#1F2937">Lab tests</text><text x="169" y="606" text-anchor="middle" dominant-baseline="central" font-family="Segoe UI, Arial, sans-serif" font-size="13" font-weight="600" fill="#1F2937">prescribed?</text>
<rect x="69" y="696" width="200" height="60" rx="10" fill="#6366F1" stroke="rgba(0,0,0,0.15)"/><text x="169" y="718" text-anchor="middle" dominant-baseline="central" font-family="Segoe UI, Arial, sans-serif" font-size="13" font-weight="600" fill="#FFFFFF">LABORATORY</text><text x="169" y="734" text-anchor="middle" dominant-baseline="central" font-family="Segoe UI, Arial, sans-serif" font-size="13" font-weight="600" fill="#FFFFFF">Sample + report</text>
<rect x="81" y="831" width="176" height="46" rx="23" fill="#334155"/><text x="169" y="846" text-anchor="middle" dominant-baseline="central" font-family="Segoe UI, Arial, sans-serif" font-size="13" font-weight="600" fill="#FFFFFF">Report to patient</text><text x="169" y="862" text-anchor="middle" dominant-baseline="central" font-family="Segoe UI, Arial, sans-serif" font-size="13" font-weight="600" fill="#FFFFFF">Journey complete</text>
<rect x="581" y="575" width="176" height="46" rx="23" fill="#334155"/><text x="669" y="590" text-anchor="middle" dominant-baseline="central" font-family="Segoe UI, Arial, sans-serif" font-size="13" font-weight="600" fill="#FFFFFF">No lab -&gt;</text><text x="669" y="606" text-anchor="middle" dominant-baseline="central" font-family="Segoe UI, Arial, sans-serif" font-size="13" font-weight="600" fill="#FFFFFF">journey complete</text>
<path d="M325,317 a94,10 0 0 1 188,0 v50 a94,10 0 0 1 -188,0 Z" fill="#10B981" stroke="rgba(0,0,0,0.15)"/><ellipse cx="419" cy="317" rx="94" ry="10" fill="rgba(255,255,255,0.18)"/><text x="419" y="338" text-anchor="middle" dominant-baseline="central" font-family="Segoe UI, Arial, sans-serif" font-size="13" font-weight="600" fill="#FFFFFF">MongoDB</text><text x="419" y="354" text-anchor="middle" dominant-baseline="central" font-family="Segoe UI, Arial, sans-serif" font-size="13" font-weight="600" fill="#FFFFFF">store + fetch (all)</text>
<rect x="319" y="440" width="200" height="60" rx="10" fill="#8B5CF6" stroke="rgba(0,0,0,0.15)"/><text x="419" y="462" text-anchor="middle" dominant-baseline="central" font-family="Segoe UI, Arial, sans-serif" font-size="13" font-weight="600" fill="#FFFFFF">Socket.IO</text><text x="419" y="478" text-anchor="middle" dominant-baseline="central" font-family="Segoe UI, Arial, sans-serif" font-size="13" font-weight="600" fill="#FFFFFF">live queues to all</text>
<rect x="319" y="696" width="200" height="60" rx="10" fill="#EC4899" stroke="rgba(0,0,0,0.15)"/><text x="419" y="718" text-anchor="middle" dominant-baseline="central" font-family="Segoe UI, Arial, sans-serif" font-size="13" font-weight="600" fill="#FFFFFF">Notifications</text><text x="419" y="734" text-anchor="middle" dominant-baseline="central" font-family="Segoe UI, Arial, sans-serif" font-size="13" font-weight="600" fill="#FFFFFF">(push + in-app)</text>
<rect x="569" y="312" width="200" height="60" rx="10" fill="#6366F1" stroke="rgba(0,0,0,0.15)"/><text x="669" y="334" text-anchor="middle" dominant-baseline="central" font-family="Segoe UI, Arial, sans-serif" font-size="13" font-weight="600" fill="#FFFFFF">ADMIN</text><text x="669" y="350" text-anchor="middle" dominant-baseline="central" font-family="Segoe UI, Arial, sans-serif" font-size="13" font-weight="600" fill="#FFFFFF">Manage + announce</text>
</svg>